<svg width="30" height="27" viewBox="0 0 30 27" fill="none" xmlns="http://www.w3.org/2000/svg">
<path d="M0 9.26259C0 8.78318 0.38879 8.39453 0.868388 8.39453H5.79166V20.5524H0.868388C0.388791 20.5524 0 20.1638 0 19.6844V9.26259Z" fill="white"/>
<path d="M29.6543 19.6847C29.6543 20.1641 29.2655 20.5527 28.7859 20.5527L23.8626 20.5527L23.8626 8.39482L28.7859 8.39482C29.2655 8.39482 29.6543 8.78347 29.6543 9.26289L29.6543 19.6847Z" fill="white"/>
<path fill-rule="evenodd" clip-rule="evenodd" d="M4.73239 4.1505C7.42688 1.49171 11.079 -2.76064e-07 14.8848 0C18.6906 2.76064e-07 22.3427 1.49171 25.0372 4.1505C27.7321 6.80967 29.2481 10.4187 29.2481 14.1842H27.5106C27.5106 10.8866 26.1832 7.72179 23.8166 5.38656C21.4496 3.05096 18.237 1.73684 14.8848 1.73684C11.5326 1.73684 8.31996 3.05096 5.953 5.38656C3.58643 7.72179 2.25898 10.8866 2.25898 14.1842H0.521484C0.521485 10.4187 2.03753 6.80966 4.73239 4.1505Z" fill="white"/>
<path fill-rule="evenodd" clip-rule="evenodd" d="M14.8846 26.3423C21.4418 26.3423 26.7575 21.0287 26.7575 14.4739C26.7575 7.91915 21.4418 2.60547 14.8846 2.60547C8.3274 2.60547 3.01172 7.91915 3.01172 14.4739C3.01172 21.0287 8.3274 26.3423 14.8846 26.3423ZM14.9258 20.6863C18.3789 20.6863 21.1781 17.8881 21.1781 14.4363C21.1781 10.9845 18.3789 8.18623 14.9258 8.18623C11.4727 8.18623 8.67336 10.9845 8.67336 14.4363C8.67336 17.8881 11.4727 20.6863 14.9258 20.6863Z" fill="white"/>
</svg>
