<svg width="303" height="303" viewBox="0 0 303 303" fill="none" xmlns="http://www.w3.org/2000/svg">
<rect width="303" height="303" rx="12" fill="#484542"/>
<path d="M209.5 83.667H93.5C89.6544 83.667 85.9662 85.2551 83.247 88.0821C80.5277 90.909 79 94.7432 79 98.7411V204.26C79 208.257 80.5277 212.092 83.247 214.919C85.9662 217.746 89.6544 219.334 93.5 219.334H209.5C213.346 219.334 217.034 217.746 219.753 214.919C222.472 212.092 224 208.257 224 204.26V98.7411C224 94.7432 222.472 90.909 219.753 88.0821C217.034 85.2551 213.346 83.667 209.5 83.667ZM169.625 113.815C171.776 113.815 173.878 114.478 175.667 115.72C177.455 116.963 178.849 118.728 179.672 120.794C180.495 122.86 180.711 125.133 180.291 127.326C179.871 129.519 178.836 131.534 177.315 133.115C175.794 134.696 173.856 135.773 171.747 136.209C169.637 136.645 167.45 136.421 165.463 135.566C163.476 134.71 161.778 133.261 160.583 131.402C159.388 129.543 158.75 127.357 158.75 125.121C158.75 122.122 159.896 119.247 161.935 117.126C163.975 115.006 166.741 113.815 169.625 113.815ZM201.351 192.811C200.726 193.994 199.807 194.982 198.69 195.67C197.573 196.358 196.299 196.722 195 196.723H108C106.764 196.723 105.548 196.395 104.469 195.77C103.389 195.145 102.481 194.243 101.831 193.15C101.181 192.057 100.81 190.81 100.754 189.527C100.698 188.243 100.959 186.966 101.511 185.816L126.886 133.057C127.47 131.84 128.36 130.81 129.462 130.076C130.563 129.343 131.835 128.932 133.143 128.889C134.462 128.813 135.775 129.126 136.929 129.793C138.084 130.46 139.034 131.453 139.668 132.658L159.787 168.511L170.995 154.289C171.723 153.367 172.651 152.638 173.703 152.162C174.755 151.686 175.901 151.475 177.046 151.549C178.191 151.623 179.303 151.978 180.29 152.585C181.278 153.192 182.112 154.035 182.726 155.043L201.148 185.191C201.83 186.328 202.209 187.633 202.244 188.972C202.28 190.312 201.972 191.637 201.351 192.811Z" fill="white" fill-opacity="0.5"/>
</svg>
